<svg width="25" height="18" viewBox="0 0 231 150" fill="none" xmlns="http://www.w3.org/2000/svg">
    <g clip-path="url(#clip0_3_77)">
        <path d="M190 75.0002C190 116.422 156.421 150 115 150C73.5786 150 40 116.422 40 75.0002C40 33.5789 73.5786 0.000244175 115 0.000244175C156.421 0.000244175 190 33.5789 190 75.0002Z" fill="white"/>
        <path d="M190 75.0002C190 93.661 183.043 111.651 170.489 125.458L115 75.0002H190Z" fill="#FF0000"/>
        <path d="M170.878 125.027C158.88 138.428 142.464 147.071 124.625 149.38L115 75.0002L170.878 125.027Z" fill="#FF8A00"/>
        <path d="M125.093 149.318C107.629 151.69 89.8866 147.835 74.9805 138.431L115 75.0002L125.093 149.318Z" fill="#FFE600"/>
        <path d="M75.9193 139.014C61.058 129.941 49.8167 115.98 44.123 99.5249L115 75.0002L75.9193 139.014Z" fill="#BDFF00"/>
        <path d="M44.1033 99.4678C38.385 82.8986 38.6508 64.8498 44.8544 48.4561L115 75.0002L44.1033 99.4678Z" fill="#24FF00"/>
        <path d="M44.8057 48.5842C51.0502 31.991 62.9711 18.1464 78.453 9.50708L115 75.0002L44.8057 48.5842Z" fill="#00E0FF"/>
        <path d="M78.1768 9.66243C93.5862 0.977831 111.569 -1.98102 128.949 1.30861L115 75.0002L78.1768 9.66243Z" fill="#0500FF"/>
        <path d="M128.752 1.27197C146.553 4.59226 162.551 14.2405 173.794 28.4353L115 75.0002L128.752 1.27197Z" fill="#8000FF"/>
        <path d="M173.378 27.9146C184.263 41.4106 190.136 58.2613 189.998 75.5996L115 75.0002L173.378 27.9146Z" fill="#FA00FF"/>
    </g>
    <defs>
        <clipPath id="clip0_3_77">
            <rect width="231" height="150" fill="white"/>
        </clipPath>
    </defs>
</svg>