<svg width="231" height="150" viewBox="0 0 231 150" fill="none" xmlns="http://www.w3.org/2000/svg">
<path d="M57.9609 114.078C57.9609 112.633 58.293 111.383 58.957 110.328C59.6211 109.234 60.6953 108.688 62.1797 108.688H70.3242L109.113 21.0898C109.699 19.7227 110.578 18.4922 111.75 17.3984C112.922 16.2656 114.445 15.6992 116.32 15.6992C118.273 15.6992 119.758 16.2852 120.773 17.457C121.828 18.5898 122.648 19.8789 123.234 21.3242L158.449 108.688H168.879C170.363 108.688 171.418 109.234 172.043 110.328C172.707 111.383 173.039 112.633 173.039 114.078C173.039 115.367 172.668 116.52 171.926 117.535C171.184 118.512 170.129 119 168.762 119H130.969C129.602 119 128.527 118.512 127.746 117.535C127.004 116.52 126.633 115.367 126.633 114.078C126.633 112.633 126.965 111.383 127.629 110.328C128.293 109.234 129.367 108.688 130.852 108.688H143.684L135.012 85.7773H92.5312L83.332 108.688H94.2305C95.7148 108.688 96.7891 109.234 97.4531 110.328C98.1172 111.383 98.4492 112.633 98.4492 114.078C98.4492 115.367 98.0586 116.52 97.2773 117.535C96.5352 118.512 95.4805 119 94.1133 119H62.2969C60.9297 119 59.8555 118.512 59.0742 117.535C58.332 116.52 57.9609 115.367 57.9609 114.078ZM96.1641 76.7539H131.672L114.504 31.168L96.1641 76.7539Z" fill="#4A4949"/>
</svg>
