<svg width="25" height="18" viewBox="0 0 231 80" fill="none" xmlns="http://www.w3.org/2000/svg">
    <path d="M13.9547 73.1896C12.2383 75.3528 9.0933 75.715 6.93009 73.9986L1.37055 69.5874C-0.792653 67.871 -1.15487 64.726 0.561524 62.5628L48.7003 1.89239C50.4167 -0.270812 53.5618 -0.633026 55.725 1.08337L61.2845 5.49457C63.4477 7.21096 63.8099 10.356 62.0935 12.5192L13.9547 73.1896Z" fill="#4A4949"/>
    <path d="M88.9729 64.791L61.4528 77.4539L35.6531 21.3839L63.1731 8.72097L88.9729 64.791Z" fill="#4A4949"/>
    <path d="M62.8206 58.4775L39.8883 69.6112L26.5564 42.1511L49.4886 31.0174L62.8206 58.4775Z" fill="#4A4949"/>
    <path d="M11.9073 66.4557C13.1134 68.9398 12.0773 71.9313 9.59315 73.1374L7.41049 74.197C4.92636 75.4031 1.93487 74.367 0.728821 71.8829L-0.496777 69.3585C-1.70283 66.8744 -0.666738 63.8829 1.81739 62.6768L4.00006 61.6171C6.48419 60.4111 9.47567 61.4472 10.6817 63.9313L11.9073 66.4557Z" fill="#4A4949"/>
    <path d="M85.4499 62.567C88.2062 62.7343 90.3051 65.1043 90.1378 67.8607L89.7078 74.9446C89.5405 77.701 87.1704 79.7998 84.4141 79.6325L7.10799 74.9404C4.35164 74.7731 2.2528 72.403 2.42009 69.6467L2.85006 62.5627C3.01736 59.8064 5.38744 57.7075 8.14379 57.8748L85.4499 62.567Z" fill="#4A4949"/>
    <path fill-rule="evenodd" clip-rule="evenodd" d="M5.52914 72.5327C17.3492 77.3185 22.2047 73.3374 30.2521 66.7394C41.539 57.4853 59.1047 43.0832 110.971 40.5C166.384 37.7402 188.313 49.5692 202.649 57.3022C212.514 62.6238 218.784 66.0057 229.895 61.3583C234.49 37.2177 167.577 19.987 110.092 22.85C52.6057 25.7131 4.30881 48.0301 5.52914 72.5327ZM215.141 59.6166C215.248 59.7982 215.268 59.888 215.251 59.8875C215.233 59.887 215.18 59.7962 215.141 59.6166Z" fill="#4A4949"/>
</svg>